<?xml version="1.0" standalone="no"?>
<!DOCTYPE svg PUBLIC "-//W3C//DTD SVG 20010904//EN"
 "http://www.w3.org/TR/2001/REC-SVG-20010904/DTD/svg10.dtd">
<svg version="1.0" xmlns="http://www.w3.org/2000/svg"
 width="228.000000pt" height="267.000000pt" viewBox="0 0 228.000000 267.000000"
 preserveAspectRatio="xMidYMid meet">

<g transform="translate(0.000000,267.000000) scale(0.100000,-0.100000)"
fill="#000000" stroke="none">
<path d="M625 1692 c-335 -537 -610 -981 -610 -985 0 -5 135 -163 299 -352
l299 -344 407 652 c224 359 516 828 650 1042 134 215 250 402 257 417 8 15 19
30 24 33 5 4 7 11 4 16 -4 5 -1 9 5 9 6 0 8 5 5 10 -4 6 -11 8 -16 5 -5 -4 -9
-1 -9 4 0 10 14 15 32 12 4 0 5 6 2 14 -4 9 -1 22 6 30 10 13 9 15 -11 16 -17
1 -19 3 -6 6 9 2 17 8 17 13 0 5 -7 7 -15 4 -11 -5 -14 -2 -9 12 4 11 11 24
15 29 7 9 6 31 -1 55 -1 3 -5 -4 -10 -15 -8 -17 -9 -15 -7 10 1 21 -2 29 -12
27 -11 -2 -12 0 -3 11 7 8 8 18 4 22 -4 5 -2 6 3 2 6 -3 17 -2 25 4 10 6 11 9
3 9 -7 0 -13 5 -13 11 0 5 4 7 10 4 5 -3 1 15 -10 41 -20 47 -21 62 -1 50 6
-4 8 -13 4 -21 -3 -8 0 -15 5 -15 6 0 9 10 6 23 -7 30 -7 72 1 100 5 19 4 20
-5 5 -12 -20 -30 -24 -30 -7 0 5 5 7 10 4 6 -3 10 -1 10 4 0 8 -114 11 -362
11 l-363 -1 -610 -977z m1335 558 c0 -5 -2 -10 -4 -10 -3 0 -8 5 -11 10 -3 6
-1 10 4 10 6 0 11 -4 11 -10z"/>
<path d="M1960 2430 c0 -5 5 -10 11 -10 5 0 7 5 4 10 -3 6 -8 10 -11 10 -2 0
-4 -4 -4 -10z"/>
</g>
</svg>
